<mxfile host="app.diagrams.net" modified="2023-06-06T12:13:35.630Z" agent="Mozilla/5.0 (Windows NT 10.0; Win64; x64) AppleWebKit/537.36 (KHTML, like Gecko) Chrome/114.0.0.0 Safari/537.36" etag="oQul1OOhjgPn7HPqaVmJ" version="21.3.7">
  <diagram name="PÃ¡gina-1" id="x4wk0Ayn7jHA7g6Jbh_h">
    <mxGraphModel dx="1687" dy="932" grid="1" gridSize="10" guides="1" tooltips="1" connect="1" arrows="1" fold="1" page="1" pageScale="1" pageWidth="827" pageHeight="1169" math="0" shadow="0">
      <root>
        <mxCell id="0" />
        <mxCell id="1" parent="0" />
        <mxCell id="_ivXm9f3MDUyb-QJYO9r-1" value="&lt;font style=&quot;font-size: 14px;&quot;&gt;Task&lt;/font&gt;" style="rounded=1;whiteSpace=wrap;html=1;" vertex="1" parent="1">
          <mxGeometry x="440" y="180" width="120" height="70" as="geometry" />
        </mxCell>
        <mxCell id="_ivXm9f3MDUyb-QJYO9r-2" value="" style="endArrow=none;html=1;rounded=0;exitX=0.5;exitY=0;exitDx=0;exitDy=0;" edge="1" parent="1" source="_ivXm9f3MDUyb-QJYO9r-1" target="_ivXm9f3MDUyb-QJYO9r-3">
          <mxGeometry width="50" height="50" relative="1" as="geometry">
            <mxPoint x="500" y="160" as="sourcePoint" />
            <mxPoint x="510" y="120" as="targetPoint" />
          </mxGeometry>
        </mxCell>
        <mxCell id="_ivXm9f3MDUyb-QJYO9r-3" value="&lt;u&gt;Code&lt;/u&gt;" style="ellipse;whiteSpace=wrap;html=1;" vertex="1" parent="1">
          <mxGeometry x="400" y="50" width="80" height="40" as="geometry" />
        </mxCell>
        <mxCell id="_ivXm9f3MDUyb-QJYO9r-4" value="" style="endArrow=none;html=1;rounded=0;" edge="1" parent="1" target="_ivXm9f3MDUyb-QJYO9r-5">
          <mxGeometry width="50" height="50" relative="1" as="geometry">
            <mxPoint x="530.0048766590003" y="180" as="sourcePoint" />
            <mxPoint x="686.65" y="150" as="targetPoint" />
          </mxGeometry>
        </mxCell>
        <mxCell id="_ivXm9f3MDUyb-QJYO9r-5" value="Title" style="ellipse;whiteSpace=wrap;html=1;" vertex="1" parent="1">
          <mxGeometry x="490" y="40" width="80" height="40" as="geometry" />
        </mxCell>
        <mxCell id="_ivXm9f3MDUyb-QJYO9r-6" value="" style="endArrow=none;html=1;rounded=0;" edge="1" parent="1" target="_ivXm9f3MDUyb-QJYO9r-7">
          <mxGeometry width="50" height="50" relative="1" as="geometry">
            <mxPoint x="440" y="190" as="sourcePoint" />
            <mxPoint x="706.65" y="230" as="targetPoint" />
          </mxGeometry>
        </mxCell>
        <mxCell id="_ivXm9f3MDUyb-QJYO9r-7" value="Description" style="ellipse;whiteSpace=wrap;html=1;" vertex="1" parent="1">
          <mxGeometry x="320" y="50" width="80" height="40" as="geometry" />
        </mxCell>
        <mxCell id="_ivXm9f3MDUyb-QJYO9r-8" value="" style="endArrow=none;html=1;rounded=0;exitX=-0.022;exitY=0.343;exitDx=0;exitDy=0;exitPerimeter=0;" edge="1" parent="1" source="_ivXm9f3MDUyb-QJYO9r-1" target="_ivXm9f3MDUyb-QJYO9r-9">
          <mxGeometry width="50" height="50" relative="1" as="geometry">
            <mxPoint x="430" y="240" as="sourcePoint" />
            <mxPoint x="656.65" y="300" as="targetPoint" />
          </mxGeometry>
        </mxCell>
        <mxCell id="_ivXm9f3MDUyb-QJYO9r-9" value="Deadline" style="ellipse;whiteSpace=wrap;html=1;" vertex="1" parent="1">
          <mxGeometry x="190" y="70" width="130" height="40" as="geometry" />
        </mxCell>
        <mxCell id="_ivXm9f3MDUyb-QJYO9r-10" value="" style="endArrow=none;html=1;rounded=0;" edge="1" parent="1" target="_ivXm9f3MDUyb-QJYO9r-11">
          <mxGeometry width="50" height="50" relative="1" as="geometry">
            <mxPoint x="440" y="210" as="sourcePoint" />
            <mxPoint x="636.65" y="380" as="targetPoint" />
          </mxGeometry>
        </mxCell>
        <mxCell id="_ivXm9f3MDUyb-QJYO9r-11" value="importance" style="ellipse;whiteSpace=wrap;html=1;" vertex="1" parent="1">
          <mxGeometry x="110" y="90" width="80" height="40" as="geometry" />
        </mxCell>
        <mxCell id="_ivXm9f3MDUyb-QJYO9r-14" value="" style="endArrow=none;html=1;rounded=0;exitX=0;exitY=1;exitDx=0;exitDy=0;entryX=1;entryY=0.5;entryDx=0;entryDy=0;" edge="1" parent="1" source="_ivXm9f3MDUyb-QJYO9r-1" target="_ivXm9f3MDUyb-QJYO9r-15">
          <mxGeometry width="50" height="50" relative="1" as="geometry">
            <mxPoint x="450" y="220" as="sourcePoint" />
            <mxPoint x="320" y="310" as="targetPoint" />
          </mxGeometry>
        </mxCell>
        <mxCell id="_ivXm9f3MDUyb-QJYO9r-15" value="Priority" style="ellipse;whiteSpace=wrap;html=1;" vertex="1" parent="1">
          <mxGeometry x="70" y="205" width="80" height="40" as="geometry" />
        </mxCell>
        <mxCell id="_ivXm9f3MDUyb-QJYO9r-16" value="" style="endArrow=none;html=1;rounded=0;exitX=0.912;exitY=0.025;exitDx=0;exitDy=0;entryX=0;entryY=0.5;entryDx=0;entryDy=0;exitPerimeter=0;" edge="1" parent="1" source="_ivXm9f3MDUyb-QJYO9r-1" target="_ivXm9f3MDUyb-QJYO9r-17">
          <mxGeometry width="50" height="50" relative="1" as="geometry">
            <mxPoint x="560" y="200" as="sourcePoint" />
            <mxPoint x="710" y="260" as="targetPoint" />
          </mxGeometry>
        </mxCell>
        <mxCell id="_ivXm9f3MDUyb-QJYO9r-17" value="State" style="ellipse;whiteSpace=wrap;html=1;" vertex="1" parent="1">
          <mxGeometry x="590" y="50" width="80" height="40" as="geometry" />
        </mxCell>
        <mxCell id="_ivXm9f3MDUyb-QJYO9r-18" value="&lt;font style=&quot;font-size: 14px;&quot;&gt;User&lt;/font&gt;" style="rounded=1;whiteSpace=wrap;html=1;" vertex="1" parent="1">
          <mxGeometry x="1510" y="220" width="120" height="40" as="geometry" />
        </mxCell>
        <mxCell id="_ivXm9f3MDUyb-QJYO9r-19" value="" style="endArrow=none;html=1;rounded=0;exitX=0.5;exitY=0;exitDx=0;exitDy=0;" edge="1" parent="1" source="_ivXm9f3MDUyb-QJYO9r-18" target="_ivXm9f3MDUyb-QJYO9r-20">
          <mxGeometry width="50" height="50" relative="1" as="geometry">
            <mxPoint x="1570" y="200" as="sourcePoint" />
            <mxPoint x="1580" y="160" as="targetPoint" />
          </mxGeometry>
        </mxCell>
        <mxCell id="_ivXm9f3MDUyb-QJYO9r-20" value="&lt;u&gt;ID&lt;/u&gt;" style="ellipse;whiteSpace=wrap;html=1;" vertex="1" parent="1">
          <mxGeometry x="1470" y="90" width="80" height="40" as="geometry" />
        </mxCell>
        <mxCell id="_ivXm9f3MDUyb-QJYO9r-21" value="" style="endArrow=none;html=1;rounded=0;" edge="1" parent="1" target="_ivXm9f3MDUyb-QJYO9r-22">
          <mxGeometry width="50" height="50" relative="1" as="geometry">
            <mxPoint x="1600.0048766590003" y="220" as="sourcePoint" />
            <mxPoint x="1756.65" y="190" as="targetPoint" />
          </mxGeometry>
        </mxCell>
        <mxCell id="_ivXm9f3MDUyb-QJYO9r-22" value="Name" style="ellipse;whiteSpace=wrap;html=1;" vertex="1" parent="1">
          <mxGeometry x="1560" y="80" width="80" height="40" as="geometry" />
        </mxCell>
        <mxCell id="_ivXm9f3MDUyb-QJYO9r-23" value="" style="endArrow=none;html=1;rounded=0;" edge="1" parent="1" target="_ivXm9f3MDUyb-QJYO9r-24">
          <mxGeometry width="50" height="50" relative="1" as="geometry">
            <mxPoint x="1510" y="230" as="sourcePoint" />
            <mxPoint x="1776.65" y="270" as="targetPoint" />
          </mxGeometry>
        </mxCell>
        <mxCell id="_ivXm9f3MDUyb-QJYO9r-24" value="Email" style="ellipse;whiteSpace=wrap;html=1;" vertex="1" parent="1">
          <mxGeometry x="1390" y="90" width="80" height="40" as="geometry" />
        </mxCell>
        <mxCell id="_ivXm9f3MDUyb-QJYO9r-25" value="" style="endArrow=none;html=1;rounded=0;exitX=1;exitY=0;exitDx=0;exitDy=0;entryX=0;entryY=0.5;entryDx=0;entryDy=0;" edge="1" parent="1" source="_ivXm9f3MDUyb-QJYO9r-18" target="_ivXm9f3MDUyb-QJYO9r-26">
          <mxGeometry width="50" height="50" relative="1" as="geometry">
            <mxPoint x="1630" y="240" as="sourcePoint" />
            <mxPoint x="1780" y="300" as="targetPoint" />
          </mxGeometry>
        </mxCell>
        <mxCell id="_ivXm9f3MDUyb-QJYO9r-26" value="DoB" style="ellipse;whiteSpace=wrap;html=1;" vertex="1" parent="1">
          <mxGeometry x="1660" y="90" width="80" height="40" as="geometry" />
        </mxCell>
        <mxCell id="_ivXm9f3MDUyb-QJYO9r-27" value="" style="endArrow=none;html=1;rounded=0;exitX=0;exitY=0;exitDx=0;exitDy=0;" edge="1" parent="1" source="_ivXm9f3MDUyb-QJYO9r-18" target="_ivXm9f3MDUyb-QJYO9r-28">
          <mxGeometry width="50" height="50" relative="1" as="geometry">
            <mxPoint x="1500" y="270" as="sourcePoint" />
            <mxPoint x="1776.65" y="420" as="targetPoint" />
          </mxGeometry>
        </mxCell>
        <mxCell id="_ivXm9f3MDUyb-QJYO9r-28" value="Score" style="ellipse;whiteSpace=wrap;html=1;" vertex="1" parent="1">
          <mxGeometry x="1320" y="130" width="80" height="30" as="geometry" />
        </mxCell>
        <mxCell id="_ivXm9f3MDUyb-QJYO9r-29" value="" style="endArrow=none;html=1;rounded=0;exitX=1;exitY=0.75;exitDx=0;exitDy=0;entryX=0;entryY=0.5;entryDx=0;entryDy=0;startArrow=none;" edge="1" parent="1" source="_ivXm9f3MDUyb-QJYO9r-95" target="_ivXm9f3MDUyb-QJYO9r-18">
          <mxGeometry width="50" height="50" relative="1" as="geometry">
            <mxPoint x="810" y="219.5" as="sourcePoint" />
            <mxPoint x="920" y="219.5" as="targetPoint" />
          </mxGeometry>
        </mxCell>
        <mxCell id="_ivXm9f3MDUyb-QJYO9r-30" value="&lt;font style=&quot;font-size: 14px;&quot;&gt;Stack&lt;/font&gt;" style="rounded=1;whiteSpace=wrap;html=1;" vertex="1" parent="1">
          <mxGeometry x="1720" y="575" width="120" height="40" as="geometry" />
        </mxCell>
        <mxCell id="_ivXm9f3MDUyb-QJYO9r-31" value="" style="endArrow=none;html=1;rounded=0;exitX=0.5;exitY=0;exitDx=0;exitDy=0;" edge="1" parent="1" source="_ivXm9f3MDUyb-QJYO9r-30" target="_ivXm9f3MDUyb-QJYO9r-32">
          <mxGeometry width="50" height="50" relative="1" as="geometry">
            <mxPoint x="1780" y="555" as="sourcePoint" />
            <mxPoint x="1790" y="515" as="targetPoint" />
          </mxGeometry>
        </mxCell>
        <mxCell id="_ivXm9f3MDUyb-QJYO9r-32" value="&lt;u&gt;Stack_id&lt;/u&gt;" style="ellipse;whiteSpace=wrap;html=1;" vertex="1" parent="1">
          <mxGeometry x="1700" y="445" width="80" height="40" as="geometry" />
        </mxCell>
        <mxCell id="_ivXm9f3MDUyb-QJYO9r-33" value="" style="endArrow=none;html=1;rounded=0;" edge="1" parent="1" target="_ivXm9f3MDUyb-QJYO9r-34">
          <mxGeometry width="50" height="50" relative="1" as="geometry">
            <mxPoint x="1810.0048766590003" y="575" as="sourcePoint" />
            <mxPoint x="1966.65" y="545" as="targetPoint" />
          </mxGeometry>
        </mxCell>
        <mxCell id="_ivXm9f3MDUyb-QJYO9r-34" value="Name" style="ellipse;whiteSpace=wrap;html=1;" vertex="1" parent="1">
          <mxGeometry x="1880" y="435" width="80" height="40" as="geometry" />
        </mxCell>
        <mxCell id="_ivXm9f3MDUyb-QJYO9r-35" value="" style="endArrow=none;html=1;rounded=0;exitX=0.75;exitY=1;exitDx=0;exitDy=0;" edge="1" parent="1" source="_ivXm9f3MDUyb-QJYO9r-30" target="_ivXm9f3MDUyb-QJYO9r-36">
          <mxGeometry width="50" height="50" relative="1" as="geometry">
            <mxPoint x="1720" y="585" as="sourcePoint" />
            <mxPoint x="1986.65" y="625" as="targetPoint" />
          </mxGeometry>
        </mxCell>
        <mxCell id="_ivXm9f3MDUyb-QJYO9r-36" value="Curr_task_num" style="ellipse;whiteSpace=wrap;html=1;" vertex="1" parent="1">
          <mxGeometry x="1774" y="725" width="100" height="40" as="geometry" />
        </mxCell>
        <mxCell id="_ivXm9f3MDUyb-QJYO9r-37" value="" style="endArrow=none;html=1;rounded=0;exitX=1;exitY=0.75;exitDx=0;exitDy=0;entryX=0;entryY=0.5;entryDx=0;entryDy=0;" edge="1" parent="1" target="_ivXm9f3MDUyb-QJYO9r-38">
          <mxGeometry width="50" height="50" relative="1" as="geometry">
            <mxPoint x="1840" y="595" as="sourcePoint" />
            <mxPoint x="1990" y="655" as="targetPoint" />
          </mxGeometry>
        </mxCell>
        <mxCell id="_ivXm9f3MDUyb-QJYO9r-38" value="Num_max_task" style="ellipse;whiteSpace=wrap;html=1;" vertex="1" parent="1">
          <mxGeometry x="1940" y="485" width="100" height="40" as="geometry" />
        </mxCell>
        <mxCell id="_ivXm9f3MDUyb-QJYO9r-39" value="" style="endArrow=none;html=1;rounded=0;entryX=0;entryY=0;entryDx=0;entryDy=0;exitX=1;exitY=0.5;exitDx=0;exitDy=0;" edge="1" parent="1" source="_ivXm9f3MDUyb-QJYO9r-61" target="_ivXm9f3MDUyb-QJYO9r-30">
          <mxGeometry width="50" height="50" relative="1" as="geometry">
            <mxPoint x="950" y="280" as="sourcePoint" />
            <mxPoint x="740" y="420" as="targetPoint" />
          </mxGeometry>
        </mxCell>
        <mxCell id="_ivXm9f3MDUyb-QJYO9r-40" value="&lt;span style=&quot;font-size: 14px;&quot;&gt;TaskGroup&lt;/span&gt;" style="rounded=1;whiteSpace=wrap;html=1;" vertex="1" parent="1">
          <mxGeometry x="470" y="680" width="120" height="40" as="geometry" />
        </mxCell>
        <mxCell id="_ivXm9f3MDUyb-QJYO9r-41" value="" style="endArrow=none;html=1;rounded=0;exitX=0.102;exitY=0.031;exitDx=0;exitDy=0;exitPerimeter=0;" edge="1" parent="1" source="_ivXm9f3MDUyb-QJYO9r-40" target="_ivXm9f3MDUyb-QJYO9r-42">
          <mxGeometry width="50" height="50" relative="1" as="geometry">
            <mxPoint x="530" y="660" as="sourcePoint" />
            <mxPoint x="540" y="620" as="targetPoint" />
          </mxGeometry>
        </mxCell>
        <mxCell id="_ivXm9f3MDUyb-QJYO9r-42" value="&lt;u&gt;Code&lt;/u&gt;" style="ellipse;whiteSpace=wrap;html=1;" vertex="1" parent="1">
          <mxGeometry x="280" y="470" width="80" height="40" as="geometry" />
        </mxCell>
        <mxCell id="_ivXm9f3MDUyb-QJYO9r-43" value="" style="endArrow=none;html=1;rounded=0;exitX=0.25;exitY=0;exitDx=0;exitDy=0;" edge="1" parent="1" source="_ivXm9f3MDUyb-QJYO9r-40" target="_ivXm9f3MDUyb-QJYO9r-44">
          <mxGeometry width="50" height="50" relative="1" as="geometry">
            <mxPoint x="490" y="670" as="sourcePoint" />
            <mxPoint x="716.65" y="650" as="targetPoint" />
          </mxGeometry>
        </mxCell>
        <mxCell id="_ivXm9f3MDUyb-QJYO9r-44" value="Title" style="ellipse;whiteSpace=wrap;html=1;" vertex="1" parent="1">
          <mxGeometry x="374" y="510" width="80" height="40" as="geometry" />
        </mxCell>
        <mxCell id="_ivXm9f3MDUyb-QJYO9r-45" value="" style="endArrow=none;html=1;rounded=0;" edge="1" parent="1" target="_ivXm9f3MDUyb-QJYO9r-46">
          <mxGeometry width="50" height="50" relative="1" as="geometry">
            <mxPoint x="470" y="690" as="sourcePoint" />
            <mxPoint x="736.65" y="730" as="targetPoint" />
          </mxGeometry>
        </mxCell>
        <mxCell id="_ivXm9f3MDUyb-QJYO9r-46" value="Description" style="ellipse;whiteSpace=wrap;html=1;" vertex="1" parent="1">
          <mxGeometry x="280" y="550" width="80" height="40" as="geometry" />
        </mxCell>
        <mxCell id="_ivXm9f3MDUyb-QJYO9r-47" value="" style="endArrow=none;html=1;rounded=0;exitX=0;exitY=0.75;exitDx=0;exitDy=0;" edge="1" parent="1" source="_ivXm9f3MDUyb-QJYO9r-40" target="_ivXm9f3MDUyb-QJYO9r-48">
          <mxGeometry width="50" height="50" relative="1" as="geometry">
            <mxPoint x="460" y="740" as="sourcePoint" />
            <mxPoint x="686.65" y="800" as="targetPoint" />
          </mxGeometry>
        </mxCell>
        <mxCell id="_ivXm9f3MDUyb-QJYO9r-48" value="Deadline" style="ellipse;whiteSpace=wrap;html=1;" vertex="1" parent="1">
          <mxGeometry x="120" y="520" width="130" height="40" as="geometry" />
        </mxCell>
        <mxCell id="_ivXm9f3MDUyb-QJYO9r-49" value="" style="endArrow=none;html=1;rounded=0;" edge="1" parent="1" target="_ivXm9f3MDUyb-QJYO9r-50">
          <mxGeometry width="50" height="50" relative="1" as="geometry">
            <mxPoint x="470" y="710" as="sourcePoint" />
            <mxPoint x="666.65" y="880" as="targetPoint" />
          </mxGeometry>
        </mxCell>
        <mxCell id="_ivXm9f3MDUyb-QJYO9r-50" value="Curr_undone_task_num" style="ellipse;whiteSpace=wrap;html=1;" vertex="1" parent="1">
          <mxGeometry x="40" y="590" width="180" height="40" as="geometry" />
        </mxCell>
        <mxCell id="_ivXm9f3MDUyb-QJYO9r-53" value="" style="endArrow=none;html=1;rounded=0;exitX=0.083;exitY=1;exitDx=0;exitDy=0;exitPerimeter=0;entryX=1;entryY=0.5;entryDx=0;entryDy=0;" edge="1" parent="1" target="_ivXm9f3MDUyb-QJYO9r-54">
          <mxGeometry width="50" height="50" relative="1" as="geometry">
            <mxPoint x="480" y="720" as="sourcePoint" />
            <mxPoint x="350" y="810" as="targetPoint" />
          </mxGeometry>
        </mxCell>
        <mxCell id="_ivXm9f3MDUyb-QJYO9r-54" value="OverralPriority" style="ellipse;whiteSpace=wrap;html=1;" vertex="1" parent="1">
          <mxGeometry x="110" y="670" width="80" height="40" as="geometry" />
        </mxCell>
        <mxCell id="_ivXm9f3MDUyb-QJYO9r-55" value="" style="endArrow=none;html=1;rounded=0;entryX=0;entryY=0.5;entryDx=0;entryDy=0;exitX=0.418;exitY=-0.067;exitDx=0;exitDy=0;exitPerimeter=0;" edge="1" parent="1" source="_ivXm9f3MDUyb-QJYO9r-40" target="_ivXm9f3MDUyb-QJYO9r-56">
          <mxGeometry width="50" height="50" relative="1" as="geometry">
            <mxPoint x="580" y="680" as="sourcePoint" />
            <mxPoint x="740" y="760" as="targetPoint" />
          </mxGeometry>
        </mxCell>
        <mxCell id="_ivXm9f3MDUyb-QJYO9r-56" value="Num_max_task" style="ellipse;whiteSpace=wrap;html=1;" vertex="1" parent="1">
          <mxGeometry x="427.45" y="420" width="80" height="40" as="geometry" />
        </mxCell>
        <mxCell id="_ivXm9f3MDUyb-QJYO9r-57" value="" style="endArrow=none;html=1;rounded=0;exitX=0;exitY=0.75;exitDx=0;exitDy=0;" edge="1" parent="1" target="_ivXm9f3MDUyb-QJYO9r-58">
          <mxGeometry width="50" height="50" relative="1" as="geometry">
            <mxPoint x="480" y="720" as="sourcePoint" />
            <mxPoint x="696.65" y="810" as="targetPoint" />
          </mxGeometry>
        </mxCell>
        <mxCell id="_ivXm9f3MDUyb-QJYO9r-58" value="DateOfCreation" style="ellipse;whiteSpace=wrap;html=1;" vertex="1" parent="1">
          <mxGeometry x="160" y="737.5" width="130" height="40" as="geometry" />
        </mxCell>
        <mxCell id="_ivXm9f3MDUyb-QJYO9r-59" value="" style="endArrow=none;html=1;rounded=0;" edge="1" parent="1" source="_ivXm9f3MDUyb-QJYO9r-1" target="_ivXm9f3MDUyb-QJYO9r-60">
          <mxGeometry width="50" height="50" relative="1" as="geometry">
            <mxPoint x="619.9985916258877" y="210" as="sourcePoint" />
            <mxPoint x="1087.12" y="330" as="targetPoint" />
          </mxGeometry>
        </mxCell>
        <mxCell id="_ivXm9f3MDUyb-QJYO9r-60" value="DateOfCreation" style="ellipse;whiteSpace=wrap;html=1;" vertex="1" parent="1">
          <mxGeometry x="620.47" y="100" width="130" height="40" as="geometry" />
        </mxCell>
        <mxCell id="_ivXm9f3MDUyb-QJYO9r-61" value="belongs to" style="rhombus;whiteSpace=wrap;html=1;" vertex="1" parent="1">
          <mxGeometry x="910" y="280" width="100" height="50" as="geometry" />
        </mxCell>
        <mxCell id="_ivXm9f3MDUyb-QJYO9r-62" value="" style="endArrow=none;html=1;rounded=0;exitX=1;exitY=0.75;exitDx=0;exitDy=0;entryX=0;entryY=0;entryDx=0;entryDy=0;" edge="1" parent="1" source="_ivXm9f3MDUyb-QJYO9r-1" target="_ivXm9f3MDUyb-QJYO9r-61">
          <mxGeometry width="50" height="50" relative="1" as="geometry">
            <mxPoint x="690" y="400" as="sourcePoint" />
            <mxPoint x="740" y="350" as="targetPoint" />
          </mxGeometry>
        </mxCell>
        <mxCell id="_ivXm9f3MDUyb-QJYO9r-63" value="&lt;font style=&quot;font-size: 14px;&quot;&gt;GroupAssociationType&lt;/font&gt;" style="rounded=1;whiteSpace=wrap;html=1;" vertex="1" parent="1">
          <mxGeometry x="390" y="990" width="170" height="40" as="geometry" />
        </mxCell>
        <mxCell id="_ivXm9f3MDUyb-QJYO9r-64" value="" style="endArrow=none;html=1;rounded=0;exitX=0.5;exitY=0;exitDx=0;exitDy=0;" edge="1" parent="1" source="_ivXm9f3MDUyb-QJYO9r-63" target="_ivXm9f3MDUyb-QJYO9r-65">
          <mxGeometry width="50" height="50" relative="1" as="geometry">
            <mxPoint x="440" y="1030" as="sourcePoint" />
            <mxPoint x="450" y="990" as="targetPoint" />
          </mxGeometry>
        </mxCell>
        <mxCell id="_ivXm9f3MDUyb-QJYO9r-65" value="&lt;u&gt;Assoc_code&lt;/u&gt;" style="ellipse;whiteSpace=wrap;html=1;" vertex="1" parent="1">
          <mxGeometry x="340" y="920" width="80" height="40" as="geometry" />
        </mxCell>
        <mxCell id="_ivXm9f3MDUyb-QJYO9r-66" value="" style="endArrow=none;html=1;rounded=0;exitX=0.75;exitY=0;exitDx=0;exitDy=0;entryX=0;entryY=0.5;entryDx=0;entryDy=0;" edge="1" parent="1" source="_ivXm9f3MDUyb-QJYO9r-63" target="_ivXm9f3MDUyb-QJYO9r-67">
          <mxGeometry width="50" height="50" relative="1" as="geometry">
            <mxPoint x="500" y="1070" as="sourcePoint" />
            <mxPoint x="650" y="1130" as="targetPoint" />
          </mxGeometry>
        </mxCell>
        <mxCell id="_ivXm9f3MDUyb-QJYO9r-67" value="CriteriaType" style="ellipse;whiteSpace=wrap;html=1;" vertex="1" parent="1">
          <mxGeometry x="530" y="920" width="80" height="40" as="geometry" />
        </mxCell>
        <mxCell id="_ivXm9f3MDUyb-QJYO9r-68" value="" style="endArrow=none;html=1;rounded=0;entryX=0.652;entryY=-0.094;entryDx=0;entryDy=0;exitX=0.5;exitY=1;exitDx=0;exitDy=0;startArrow=none;entryPerimeter=0;" edge="1" parent="1" source="_ivXm9f3MDUyb-QJYO9r-70" target="_ivXm9f3MDUyb-QJYO9r-63">
          <mxGeometry width="50" height="50" relative="1" as="geometry">
            <mxPoint x="490" y="910" as="sourcePoint" />
            <mxPoint x="490" y="1050" as="targetPoint" />
          </mxGeometry>
        </mxCell>
        <mxCell id="_ivXm9f3MDUyb-QJYO9r-69" value="" style="endArrow=none;html=1;rounded=0;entryX=0.5;entryY=0;entryDx=0;entryDy=0;exitX=0.571;exitY=1.068;exitDx=0;exitDy=0;exitPerimeter=0;" edge="1" parent="1" source="_ivXm9f3MDUyb-QJYO9r-40" target="_ivXm9f3MDUyb-QJYO9r-70">
          <mxGeometry width="50" height="50" relative="1" as="geometry">
            <mxPoint x="539" y="723" as="sourcePoint" />
            <mxPoint x="490" y="1050" as="targetPoint" />
          </mxGeometry>
        </mxCell>
        <mxCell id="_ivXm9f3MDUyb-QJYO9r-70" value="Categorizes" style="rhombus;whiteSpace=wrap;html=1;" vertex="1" parent="1">
          <mxGeometry x="460" y="790" width="100" height="50" as="geometry" />
        </mxCell>
        <mxCell id="_ivXm9f3MDUyb-QJYO9r-71" value="&lt;font style=&quot;font-size: 14px;&quot;&gt;ImportanceAssociation&lt;/font&gt;" style="rounded=1;whiteSpace=wrap;html=1;" vertex="1" parent="1">
          <mxGeometry x="130" y="1300" width="170" height="40" as="geometry" />
        </mxCell>
        <mxCell id="_ivXm9f3MDUyb-QJYO9r-72" value="" style="endArrow=none;html=1;rounded=0;exitX=0.564;exitY=1.034;exitDx=0;exitDy=0;exitPerimeter=0;" edge="1" parent="1" source="_ivXm9f3MDUyb-QJYO9r-71" target="_ivXm9f3MDUyb-QJYO9r-73">
          <mxGeometry width="50" height="50" relative="1" as="geometry">
            <mxPoint x="400" y="1280" as="sourcePoint" />
            <mxPoint x="410" y="1240" as="targetPoint" />
          </mxGeometry>
        </mxCell>
        <mxCell id="_ivXm9f3MDUyb-QJYO9r-73" value="&lt;u&gt;Code&lt;/u&gt;" style="ellipse;whiteSpace=wrap;html=1;" vertex="1" parent="1">
          <mxGeometry x="210" y="1400" width="80" height="40" as="geometry" />
        </mxCell>
        <mxCell id="_ivXm9f3MDUyb-QJYO9r-74" value="" style="endArrow=none;html=1;rounded=0;" edge="1" parent="1" source="_ivXm9f3MDUyb-QJYO9r-71" target="_ivXm9f3MDUyb-QJYO9r-75">
          <mxGeometry width="50" height="50" relative="1" as="geometry">
            <mxPoint x="340" y="1310" as="sourcePoint" />
            <mxPoint x="606.65" y="1350" as="targetPoint" />
          </mxGeometry>
        </mxCell>
        <mxCell id="_ivXm9f3MDUyb-QJYO9r-75" value="Importance" style="ellipse;whiteSpace=wrap;html=1;" vertex="1" parent="1">
          <mxGeometry x="95" y="1390" width="70" height="40" as="geometry" />
        </mxCell>
        <mxCell id="_ivXm9f3MDUyb-QJYO9r-76" value="" style="endArrow=none;html=1;rounded=0;entryX=0.879;entryY=-0.012;entryDx=0;entryDy=0;entryPerimeter=0;exitX=0.088;exitY=0.03;exitDx=0;exitDy=0;exitPerimeter=0;" edge="1" parent="1" source="_ivXm9f3MDUyb-QJYO9r-77" target="_ivXm9f3MDUyb-QJYO9r-71">
          <mxGeometry width="50" height="50" relative="1" as="geometry">
            <mxPoint x="420" y="1230" as="sourcePoint" />
            <mxPoint x="360" y="1289" as="targetPoint" />
          </mxGeometry>
        </mxCell>
        <mxCell id="_ivXm9f3MDUyb-QJYO9r-77" value="Is-a&lt;br&gt;" style="triangle;whiteSpace=wrap;html=1;rotation=-89;" vertex="1" parent="1">
          <mxGeometry x="440" y="1160" width="54.91" height="65" as="geometry" />
        </mxCell>
        <mxCell id="_ivXm9f3MDUyb-QJYO9r-78" value="&lt;font style=&quot;font-size: 14px;&quot;&gt;DeadlineAssociation&lt;/font&gt;" style="rounded=1;whiteSpace=wrap;html=1;" vertex="1" parent="1">
          <mxGeometry x="400" y="1300" width="170" height="40" as="geometry" />
        </mxCell>
        <mxCell id="_ivXm9f3MDUyb-QJYO9r-79" value="" style="endArrow=none;html=1;rounded=0;exitX=0.5;exitY=1;exitDx=0;exitDy=0;" edge="1" parent="1" source="_ivXm9f3MDUyb-QJYO9r-78" target="_ivXm9f3MDUyb-QJYO9r-80">
          <mxGeometry width="50" height="50" relative="1" as="geometry">
            <mxPoint x="730" y="1381" as="sourcePoint" />
            <mxPoint x="740" y="1341" as="targetPoint" />
          </mxGeometry>
        </mxCell>
        <mxCell id="_ivXm9f3MDUyb-QJYO9r-80" value="&lt;u&gt;Code&lt;/u&gt;" style="ellipse;whiteSpace=wrap;html=1;" vertex="1" parent="1">
          <mxGeometry x="520" y="1380" width="80" height="40" as="geometry" />
        </mxCell>
        <mxCell id="_ivXm9f3MDUyb-QJYO9r-81" value="" style="endArrow=none;html=1;rounded=0;" edge="1" parent="1" source="_ivXm9f3MDUyb-QJYO9r-78" target="_ivXm9f3MDUyb-QJYO9r-82">
          <mxGeometry width="50" height="50" relative="1" as="geometry">
            <mxPoint x="670" y="1411" as="sourcePoint" />
            <mxPoint x="936.65" y="1451" as="targetPoint" />
          </mxGeometry>
        </mxCell>
        <mxCell id="_ivXm9f3MDUyb-QJYO9r-82" value="Deadline" style="ellipse;whiteSpace=wrap;html=1;" vertex="1" parent="1">
          <mxGeometry x="374" y="1390" width="100" height="40" as="geometry" />
        </mxCell>
        <mxCell id="_ivXm9f3MDUyb-QJYO9r-83" value="&lt;font style=&quot;font-size: 14px;&quot;&gt;CategoryAssociation&lt;/font&gt;" style="rounded=1;whiteSpace=wrap;html=1;" vertex="1" parent="1">
          <mxGeometry x="630" y="1300" width="170" height="40" as="geometry" />
        </mxCell>
        <mxCell id="_ivXm9f3MDUyb-QJYO9r-84" value="" style="endArrow=none;html=1;rounded=0;exitX=0.75;exitY=1;exitDx=0;exitDy=0;" edge="1" parent="1" source="_ivXm9f3MDUyb-QJYO9r-83" target="_ivXm9f3MDUyb-QJYO9r-85">
          <mxGeometry width="50" height="50" relative="1" as="geometry">
            <mxPoint x="970" y="1480" as="sourcePoint" />
            <mxPoint x="1080" y="1371" as="targetPoint" />
          </mxGeometry>
        </mxCell>
        <mxCell id="_ivXm9f3MDUyb-QJYO9r-85" value="&lt;u&gt;Code&lt;/u&gt;" style="ellipse;whiteSpace=wrap;html=1;" vertex="1" parent="1">
          <mxGeometry x="750.47" y="1380" width="80" height="40" as="geometry" />
        </mxCell>
        <mxCell id="_ivXm9f3MDUyb-QJYO9r-86" value="" style="endArrow=none;html=1;rounded=0;" edge="1" parent="1" source="_ivXm9f3MDUyb-QJYO9r-83" target="_ivXm9f3MDUyb-QJYO9r-87">
          <mxGeometry width="50" height="50" relative="1" as="geometry">
            <mxPoint x="1010" y="1441" as="sourcePoint" />
            <mxPoint x="1276.65" y="1481" as="targetPoint" />
          </mxGeometry>
        </mxCell>
        <mxCell id="_ivXm9f3MDUyb-QJYO9r-87" value="Category" style="ellipse;whiteSpace=wrap;html=1;" vertex="1" parent="1">
          <mxGeometry x="635.47" y="1390" width="100" height="40" as="geometry" />
        </mxCell>
        <mxCell id="_ivXm9f3MDUyb-QJYO9r-88" value="" style="endArrow=none;html=1;rounded=0;exitX=0;exitY=0.5;exitDx=0;exitDy=0;" edge="1" parent="1" source="_ivXm9f3MDUyb-QJYO9r-77" target="_ivXm9f3MDUyb-QJYO9r-78">
          <mxGeometry width="50" height="50" relative="1" as="geometry">
            <mxPoint x="600" y="1090" as="sourcePoint" />
            <mxPoint x="600" y="1240" as="targetPoint" />
          </mxGeometry>
        </mxCell>
        <mxCell id="_ivXm9f3MDUyb-QJYO9r-89" value="" style="endArrow=none;html=1;rounded=0;entryX=0.188;entryY=0.024;entryDx=0;entryDy=0;exitX=0.272;exitY=0.852;exitDx=0;exitDy=0;exitPerimeter=0;entryPerimeter=0;" edge="1" parent="1" source="_ivXm9f3MDUyb-QJYO9r-77" target="_ivXm9f3MDUyb-QJYO9r-83">
          <mxGeometry width="50" height="50" relative="1" as="geometry">
            <mxPoint x="600" y="1100" as="sourcePoint" />
            <mxPoint x="600" y="1240" as="targetPoint" />
          </mxGeometry>
        </mxCell>
        <mxCell id="_ivXm9f3MDUyb-QJYO9r-90" value="" style="endArrow=none;html=1;rounded=0;entryX=0.834;entryY=0.401;entryDx=0;entryDy=0;entryPerimeter=0;" edge="1" parent="1" target="_ivXm9f3MDUyb-QJYO9r-77">
          <mxGeometry width="50" height="50" relative="1" as="geometry">
            <mxPoint x="470" y="1030" as="sourcePoint" />
            <mxPoint x="470" y="1170" as="targetPoint" />
          </mxGeometry>
        </mxCell>
        <mxCell id="_ivXm9f3MDUyb-QJYO9r-91" value="&lt;span style=&quot;color: rgb(255, 255, 255); font-family: Helvetica; font-size: 12px; font-style: normal; font-variant-ligatures: normal; font-variant-caps: normal; font-weight: 400; letter-spacing: normal; orphans: 2; text-align: center; text-indent: 0px; text-transform: none; widows: 2; word-spacing: 0px; -webkit-text-stroke-width: 0px; background-color: rgb(4, 7, 10); text-decoration-thickness: initial; text-decoration-style: initial; text-decoration-color: initial; float: none; display: inline !important;&quot;&gt;Creates, Edit and Delete&lt;/span&gt;" style="rhombus;whiteSpace=wrap;html=1;" vertex="1" parent="1">
          <mxGeometry x="610.47" y="535" width="150" height="50" as="geometry" />
        </mxCell>
        <mxCell id="_ivXm9f3MDUyb-QJYO9r-92" value="" style="endArrow=none;html=1;rounded=0;exitX=0;exitY=1;exitDx=0;exitDy=0;entryX=1;entryY=0;entryDx=0;entryDy=0;" edge="1" parent="1" source="_ivXm9f3MDUyb-QJYO9r-91" target="_ivXm9f3MDUyb-QJYO9r-40">
          <mxGeometry width="50" height="50" relative="1" as="geometry">
            <mxPoint x="880" y="480" as="sourcePoint" />
            <mxPoint x="590" y="700" as="targetPoint" />
          </mxGeometry>
        </mxCell>
        <mxCell id="_ivXm9f3MDUyb-QJYO9r-93" value="" style="endArrow=none;html=1;rounded=0;entryX=1;entryY=0;entryDx=0;entryDy=0;exitX=0.25;exitY=1;exitDx=0;exitDy=0;" edge="1" parent="1" source="_ivXm9f3MDUyb-QJYO9r-18" target="_ivXm9f3MDUyb-QJYO9r-91">
          <mxGeometry width="50" height="50" relative="1" as="geometry">
            <mxPoint x="905" y="463" as="sourcePoint" />
            <mxPoint x="760" y="575" as="targetPoint" />
            <Array as="points">
              <mxPoint x="890" y="450" />
            </Array>
          </mxGeometry>
        </mxCell>
        <mxCell id="_ivXm9f3MDUyb-QJYO9r-94" value="" style="endArrow=none;html=1;rounded=0;exitX=1;exitY=0.25;exitDx=0;exitDy=0;entryX=0;entryY=0.5;entryDx=0;entryDy=0;" edge="1" parent="1" source="_ivXm9f3MDUyb-QJYO9r-1" target="_ivXm9f3MDUyb-QJYO9r-95">
          <mxGeometry width="50" height="50" relative="1" as="geometry">
            <mxPoint x="560" y="210" as="sourcePoint" />
            <mxPoint x="1290" y="230" as="targetPoint" />
          </mxGeometry>
        </mxCell>
        <mxCell id="_ivXm9f3MDUyb-QJYO9r-95" value="Creates, Edit and Delete" style="rhombus;whiteSpace=wrap;html=1;" vertex="1" parent="1">
          <mxGeometry x="1140" y="200" width="160" height="80" as="geometry" />
        </mxCell>
        <mxCell id="_ivXm9f3MDUyb-QJYO9r-96" value="&lt;font style=&quot;font-size: 14px;&quot;&gt;Reward&lt;/font&gt;" style="rounded=1;whiteSpace=wrap;html=1;" vertex="1" parent="1">
          <mxGeometry x="950" y="1015" width="120" height="40" as="geometry" />
        </mxCell>
        <mxCell id="_ivXm9f3MDUyb-QJYO9r-97" value="" style="endArrow=none;html=1;rounded=0;exitX=1;exitY=0.5;exitDx=0;exitDy=0;" edge="1" parent="1" source="_ivXm9f3MDUyb-QJYO9r-96" target="_ivXm9f3MDUyb-QJYO9r-98">
          <mxGeometry width="50" height="50" relative="1" as="geometry">
            <mxPoint x="1030" y="995" as="sourcePoint" />
            <mxPoint x="1040" y="955" as="targetPoint" />
          </mxGeometry>
        </mxCell>
        <mxCell id="_ivXm9f3MDUyb-QJYO9r-98" value="&lt;u&gt;Reward_id&lt;/u&gt;" style="ellipse;whiteSpace=wrap;html=1;" vertex="1" parent="1">
          <mxGeometry x="1240" y="1070" width="80" height="40" as="geometry" />
        </mxCell>
        <mxCell id="_ivXm9f3MDUyb-QJYO9r-99" value="" style="endArrow=none;html=1;rounded=0;exitX=1;exitY=0.75;exitDx=0;exitDy=0;" edge="1" parent="1" source="_ivXm9f3MDUyb-QJYO9r-96" target="_ivXm9f3MDUyb-QJYO9r-100">
          <mxGeometry width="50" height="50" relative="1" as="geometry">
            <mxPoint x="1060.0048766590003" y="1015" as="sourcePoint" />
            <mxPoint x="1216.65" y="985" as="targetPoint" />
          </mxGeometry>
        </mxCell>
        <mxCell id="_ivXm9f3MDUyb-QJYO9r-100" value="GroupName" style="ellipse;whiteSpace=wrap;html=1;" vertex="1" parent="1">
          <mxGeometry x="1120" y="1130" width="80" height="40" as="geometry" />
        </mxCell>
        <mxCell id="_ivXm9f3MDUyb-QJYO9r-101" value="" style="endArrow=none;html=1;rounded=0;exitX=1;exitY=0.25;exitDx=0;exitDy=0;" edge="1" parent="1" source="_ivXm9f3MDUyb-QJYO9r-96" target="_ivXm9f3MDUyb-QJYO9r-102">
          <mxGeometry width="50" height="50" relative="1" as="geometry">
            <mxPoint x="1010" y="1005" as="sourcePoint" />
            <mxPoint x="1236.65" y="1065" as="targetPoint" />
          </mxGeometry>
        </mxCell>
        <mxCell id="_ivXm9f3MDUyb-QJYO9r-102" value="Priority" style="ellipse;whiteSpace=wrap;html=1;" vertex="1" parent="1">
          <mxGeometry x="1240" y="1015" width="80" height="40" as="geometry" />
        </mxCell>
        <mxCell id="_ivXm9f3MDUyb-QJYO9r-103" value="" style="endArrow=none;html=1;rounded=0;exitX=0.104;exitY=1.061;exitDx=0;exitDy=0;exitPerimeter=0;entryX=1;entryY=0.5;entryDx=0;entryDy=0;" edge="1" parent="1" source="_ivXm9f3MDUyb-QJYO9r-96" target="_ivXm9f3MDUyb-QJYO9r-104">
          <mxGeometry width="50" height="50" relative="1" as="geometry">
            <mxPoint x="960" y="1075" as="sourcePoint" />
            <mxPoint x="980" y="1120" as="targetPoint" />
          </mxGeometry>
        </mxCell>
        <mxCell id="_ivXm9f3MDUyb-QJYO9r-104" value="TaskDeadline" style="ellipse;whiteSpace=wrap;html=1;" vertex="1" parent="1">
          <mxGeometry x="867" y="1110" width="90" height="30" as="geometry" />
        </mxCell>
        <mxCell id="_ivXm9f3MDUyb-QJYO9r-105" value="" style="endArrow=none;html=1;rounded=0;exitX=0;exitY=0.75;exitDx=0;exitDy=0;" edge="1" parent="1" source="_ivXm9f3MDUyb-QJYO9r-96" target="_ivXm9f3MDUyb-QJYO9r-106">
          <mxGeometry width="50" height="50" relative="1" as="geometry">
            <mxPoint x="970" y="1040" as="sourcePoint" />
            <mxPoint x="1166.65" y="1215" as="targetPoint" />
          </mxGeometry>
        </mxCell>
        <mxCell id="_ivXm9f3MDUyb-QJYO9r-106" value="Date_Time" style="ellipse;whiteSpace=wrap;html=1;" vertex="1" parent="1">
          <mxGeometry x="755" y="965" width="100" height="40" as="geometry" />
        </mxCell>
        <mxCell id="_ivXm9f3MDUyb-QJYO9r-107" value="" style="endArrow=none;html=1;rounded=0;exitX=0;exitY=1;exitDx=0;exitDy=0;" edge="1" parent="1" source="_ivXm9f3MDUyb-QJYO9r-96" target="_ivXm9f3MDUyb-QJYO9r-108">
          <mxGeometry width="50" height="50" relative="1" as="geometry">
            <mxPoint x="950" y="1035" as="sourcePoint" />
            <mxPoint x="1176.65" y="1215" as="targetPoint" />
          </mxGeometry>
        </mxCell>
        <mxCell id="_ivXm9f3MDUyb-QJYO9r-108" value="RewardValue" style="ellipse;whiteSpace=wrap;html=1;" vertex="1" parent="1">
          <mxGeometry x="770" y="1025" width="80" height="40" as="geometry" />
        </mxCell>
        <mxCell id="_ivXm9f3MDUyb-QJYO9r-109" value="" style="endArrow=none;html=1;rounded=0;exitX=0.75;exitY=1;exitDx=0;exitDy=0;entryX=0.5;entryY=0;entryDx=0;entryDy=0;" edge="1" parent="1" source="_ivXm9f3MDUyb-QJYO9r-96" target="_ivXm9f3MDUyb-QJYO9r-110">
          <mxGeometry width="50" height="50" relative="1" as="geometry">
            <mxPoint x="1090" y="1035" as="sourcePoint" />
            <mxPoint x="1240" y="1095" as="targetPoint" />
          </mxGeometry>
        </mxCell>
        <mxCell id="_ivXm9f3MDUyb-QJYO9r-110" value="Task_Code" style="ellipse;whiteSpace=wrap;html=1;" vertex="1" parent="1">
          <mxGeometry x="1000" y="1130" width="80" height="40" as="geometry" />
        </mxCell>
        <mxCell id="_ivXm9f3MDUyb-QJYO9r-111" value="rewarded by" style="rhombus;whiteSpace=wrap;html=1;" vertex="1" parent="1">
          <mxGeometry x="923" y="737.5" width="97" height="75" as="geometry" />
        </mxCell>
        <mxCell id="_ivXm9f3MDUyb-QJYO9r-112" value="&lt;span style=&quot;color: rgb(255, 255, 255); font-family: Helvetica; font-size: 12px; font-style: normal; font-variant-ligatures: normal; font-variant-caps: normal; font-weight: 400; letter-spacing: normal; orphans: 2; text-align: center; text-indent: 0px; text-transform: none; widows: 2; word-spacing: 0px; -webkit-text-stroke-width: 0px; background-color: rgb(4, 7, 10); text-decoration-thickness: initial; text-decoration-style: initial; text-decoration-color: initial; float: none; display: inline !important;&quot;&gt;Rewarded to&lt;/span&gt;" style="rhombus;whiteSpace=wrap;html=1;" vertex="1" parent="1">
          <mxGeometry x="710" y="820" width="100" height="50" as="geometry" />
        </mxCell>
        <mxCell id="_ivXm9f3MDUyb-QJYO9r-113" value="" style="endArrow=none;html=1;rounded=0;exitX=0.5;exitY=1;exitDx=0;exitDy=0;entryX=0.096;entryY=0.03;entryDx=0;entryDy=0;entryPerimeter=0;" edge="1" parent="1" source="_ivXm9f3MDUyb-QJYO9r-111" target="_ivXm9f3MDUyb-QJYO9r-96">
          <mxGeometry width="50" height="50" relative="1" as="geometry">
            <mxPoint x="1010" y="715" as="sourcePoint" />
            <mxPoint x="970" y="1010" as="targetPoint" />
          </mxGeometry>
        </mxCell>
        <mxCell id="_ivXm9f3MDUyb-QJYO9r-114" value="" style="endArrow=none;html=1;rounded=0;entryX=0;entryY=0;entryDx=0;entryDy=0;exitX=0.5;exitY=1;exitDx=0;exitDy=0;" edge="1" parent="1" source="_ivXm9f3MDUyb-QJYO9r-1" target="_ivXm9f3MDUyb-QJYO9r-111">
          <mxGeometry width="50" height="50" relative="1" as="geometry">
            <mxPoint x="960" y="370" as="sourcePoint" />
            <mxPoint x="1070" y="370" as="targetPoint" />
          </mxGeometry>
        </mxCell>
        <mxCell id="_ivXm9f3MDUyb-QJYO9r-115" value="" style="endArrow=none;html=1;rounded=0;entryX=0;entryY=0.5;entryDx=0;entryDy=0;exitX=1;exitY=1;exitDx=0;exitDy=0;" edge="1" parent="1" source="_ivXm9f3MDUyb-QJYO9r-112" target="_ivXm9f3MDUyb-QJYO9r-96">
          <mxGeometry width="50" height="50" relative="1" as="geometry">
            <mxPoint x="760" y="850" as="sourcePoint" />
            <mxPoint x="1020" y="435" as="targetPoint" />
          </mxGeometry>
        </mxCell>
        <mxCell id="_ivXm9f3MDUyb-QJYO9r-116" value="" style="endArrow=none;html=1;rounded=0;entryX=0;entryY=0;entryDx=0;entryDy=0;exitX=0.817;exitY=1.103;exitDx=0;exitDy=0;exitPerimeter=0;" edge="1" parent="1" source="_ivXm9f3MDUyb-QJYO9r-40" target="_ivXm9f3MDUyb-QJYO9r-112">
          <mxGeometry width="50" height="50" relative="1" as="geometry">
            <mxPoint x="1020" y="300" as="sourcePoint" />
            <mxPoint x="1020" y="440" as="targetPoint" />
          </mxGeometry>
        </mxCell>
        <mxCell id="_ivXm9f3MDUyb-QJYO9r-117" value="&lt;font style=&quot;font-size: 14px;&quot;&gt;Achievement&lt;/font&gt;" style="rounded=1;whiteSpace=wrap;html=1;" vertex="1" parent="1">
          <mxGeometry x="1550" y="770" width="120" height="40" as="geometry" />
        </mxCell>
        <mxCell id="_ivXm9f3MDUyb-QJYO9r-118" value="" style="endArrow=none;html=1;rounded=0;exitX=0;exitY=0.5;exitDx=0;exitDy=0;" edge="1" parent="1" source="_ivXm9f3MDUyb-QJYO9r-117" target="_ivXm9f3MDUyb-QJYO9r-119">
          <mxGeometry width="50" height="50" relative="1" as="geometry">
            <mxPoint x="1600" y="770" as="sourcePoint" />
            <mxPoint x="1620" y="710" as="targetPoint" />
          </mxGeometry>
        </mxCell>
        <mxCell id="_ivXm9f3MDUyb-QJYO9r-119" value="&lt;u&gt;Ach_code&lt;/u&gt;" style="ellipse;whiteSpace=wrap;html=1;" vertex="1" parent="1">
          <mxGeometry x="1390" y="755" width="80" height="40" as="geometry" />
        </mxCell>
        <mxCell id="_ivXm9f3MDUyb-QJYO9r-120" value="" style="endArrow=none;html=1;rounded=0;exitX=1;exitY=1;exitDx=0;exitDy=0;" edge="1" parent="1" source="_ivXm9f3MDUyb-QJYO9r-117" target="_ivXm9f3MDUyb-QJYO9r-121">
          <mxGeometry width="50" height="50" relative="1" as="geometry">
            <mxPoint x="1640.0048766590003" y="770" as="sourcePoint" />
            <mxPoint x="1796.65" y="740" as="targetPoint" />
            <Array as="points" />
          </mxGeometry>
        </mxCell>
        <mxCell id="_ivXm9f3MDUyb-QJYO9r-121" value="Title" style="ellipse;whiteSpace=wrap;html=1;" vertex="1" parent="1">
          <mxGeometry x="1710" y="860" width="80" height="40" as="geometry" />
        </mxCell>
        <mxCell id="_ivXm9f3MDUyb-QJYO9r-122" value="" style="endArrow=none;html=1;rounded=0;exitX=0;exitY=1;exitDx=0;exitDy=0;" edge="1" parent="1" source="_ivXm9f3MDUyb-QJYO9r-117" target="_ivXm9f3MDUyb-QJYO9r-123">
          <mxGeometry width="50" height="50" relative="1" as="geometry">
            <mxPoint x="1550" y="780" as="sourcePoint" />
            <mxPoint x="1816.65" y="820" as="targetPoint" />
            <Array as="points" />
          </mxGeometry>
        </mxCell>
        <mxCell id="_ivXm9f3MDUyb-QJYO9r-123" value="Description" style="ellipse;whiteSpace=wrap;html=1;" vertex="1" parent="1">
          <mxGeometry x="1400" y="820" width="80" height="40" as="geometry" />
        </mxCell>
        <mxCell id="_ivXm9f3MDUyb-QJYO9r-124" value="" style="endArrow=none;html=1;rounded=0;exitX=0.157;exitY=1.098;exitDx=0;exitDy=0;exitPerimeter=0;" edge="1" parent="1" source="_ivXm9f3MDUyb-QJYO9r-117" target="_ivXm9f3MDUyb-QJYO9r-125">
          <mxGeometry width="50" height="50" relative="1" as="geometry">
            <mxPoint x="1550" y="800" as="sourcePoint" />
            <mxPoint x="1746.65" y="970" as="targetPoint" />
          </mxGeometry>
        </mxCell>
        <mxCell id="_ivXm9f3MDUyb-QJYO9r-125" value="category" style="ellipse;whiteSpace=wrap;html=1;" vertex="1" parent="1">
          <mxGeometry x="1510" y="920" width="80" height="40" as="geometry" />
        </mxCell>
        <mxCell id="_ivXm9f3MDUyb-QJYO9r-126" value="1" style="text;html=1;strokeColor=none;fillColor=none;align=center;verticalAlign=middle;whiteSpace=wrap;rounded=0;" vertex="1" parent="1">
          <mxGeometry x="1440" y="210" width="60" height="30" as="geometry" />
        </mxCell>
        <mxCell id="_ivXm9f3MDUyb-QJYO9r-127" value="1..N" style="text;html=1;strokeColor=none;fillColor=none;align=center;verticalAlign=middle;whiteSpace=wrap;rounded=0;" vertex="1" parent="1">
          <mxGeometry x="575.47" y="170" width="60" height="30" as="geometry" />
        </mxCell>
        <mxCell id="_ivXm9f3MDUyb-QJYO9r-128" value="1" style="text;strokeColor=none;align=center;fillColor=none;html=1;verticalAlign=middle;whiteSpace=wrap;rounded=0;" vertex="1" parent="1">
          <mxGeometry x="1470" y="255" width="40" height="20" as="geometry" />
        </mxCell>
        <mxCell id="_ivXm9f3MDUyb-QJYO9r-129" value="1..N" style="text;strokeColor=none;align=center;fillColor=none;html=1;verticalAlign=middle;whiteSpace=wrap;rounded=0;" vertex="1" parent="1">
          <mxGeometry x="562.73" y="660" width="34.53" height="20" as="geometry" />
        </mxCell>
        <mxCell id="_ivXm9f3MDUyb-QJYO9r-130" value="1..N" style="text;strokeColor=none;align=center;fillColor=none;html=1;verticalAlign=middle;whiteSpace=wrap;rounded=0;" vertex="1" parent="1">
          <mxGeometry x="430" y="260" width="60" height="30" as="geometry" />
        </mxCell>
        <mxCell id="_ivXm9f3MDUyb-QJYO9r-131" value="0..1" style="text;strokeColor=none;align=center;fillColor=none;html=1;verticalAlign=middle;whiteSpace=wrap;rounded=0;" vertex="1" parent="1">
          <mxGeometry x="494.90999999999997" y="245" width="60" height="30" as="geometry" />
        </mxCell>
        <mxCell id="_ivXm9f3MDUyb-QJYO9r-132" value="1" style="text;strokeColor=none;align=center;fillColor=none;html=1;verticalAlign=middle;whiteSpace=wrap;rounded=0;" vertex="1" parent="1">
          <mxGeometry x="970" y="985" width="20" height="30" as="geometry" />
        </mxCell>
        <mxCell id="_ivXm9f3MDUyb-QJYO9r-133" value="N" style="text;strokeColor=none;align=center;fillColor=none;html=1;verticalAlign=middle;whiteSpace=wrap;rounded=0;" vertex="1" parent="1">
          <mxGeometry x="927" y="1005" width="30" height="20" as="geometry" />
        </mxCell>
        <mxCell id="_ivXm9f3MDUyb-QJYO9r-134" value="N" style="text;strokeColor=none;align=center;fillColor=none;html=1;verticalAlign=middle;whiteSpace=wrap;rounded=0;" vertex="1" parent="1">
          <mxGeometry x="494.9100000000001" y="720" width="60" height="30" as="geometry" />
        </mxCell>
        <mxCell id="_ivXm9f3MDUyb-QJYO9r-135" value="1" style="text;strokeColor=none;align=center;fillColor=none;html=1;verticalAlign=middle;whiteSpace=wrap;rounded=0;" vertex="1" parent="1">
          <mxGeometry x="455" y="960" width="60" height="30" as="geometry" />
        </mxCell>
        <mxCell id="_ivXm9f3MDUyb-QJYO9r-136" value="1" style="text;strokeColor=none;align=center;fillColor=none;html=1;verticalAlign=middle;whiteSpace=wrap;rounded=0;" vertex="1" parent="1">
          <mxGeometry x="420" y="1040" width="60" height="30" as="geometry" />
        </mxCell>
        <mxCell id="_ivXm9f3MDUyb-QJYO9r-137" value="1" style="text;strokeColor=none;align=center;fillColor=none;html=1;verticalAlign=middle;whiteSpace=wrap;rounded=0;" vertex="1" parent="1">
          <mxGeometry x="655.47" y="1270" width="60" height="30" as="geometry" />
        </mxCell>
        <mxCell id="_ivXm9f3MDUyb-QJYO9r-138" value="1" style="text;strokeColor=none;align=center;fillColor=none;html=1;verticalAlign=middle;whiteSpace=wrap;rounded=0;" vertex="1" parent="1">
          <mxGeometry x="474" y="1270" width="60" height="30" as="geometry" />
        </mxCell>
        <mxCell id="_ivXm9f3MDUyb-QJYO9r-139" value="1" style="text;strokeColor=none;align=center;fillColor=none;html=1;verticalAlign=middle;whiteSpace=wrap;rounded=0;" vertex="1" parent="1">
          <mxGeometry x="230" y="1270" width="60" height="30" as="geometry" />
        </mxCell>
        <mxCell id="_ivXm9f3MDUyb-QJYO9r-140" value="1..N" style="text;strokeColor=none;align=center;fillColor=none;html=1;verticalAlign=middle;whiteSpace=wrap;rounded=0;" vertex="1" parent="1">
          <mxGeometry x="1510" y="750" width="60" height="30" as="geometry" />
        </mxCell>
        <mxCell id="_ivXm9f3MDUyb-QJYO9r-141" value="1..N" style="text;strokeColor=none;align=center;fillColor=none;html=1;verticalAlign=middle;whiteSpace=wrap;rounded=0;" vertex="1" parent="1">
          <mxGeometry x="580.94" y="250" width="19.53" height="20" as="geometry" />
        </mxCell>
        <mxCell id="_ivXm9f3MDUyb-QJYO9r-142" value="1" style="text;strokeColor=none;align=center;fillColor=none;html=1;verticalAlign=middle;whiteSpace=wrap;rounded=0;" vertex="1" parent="1">
          <mxGeometry x="1710" y="550" width="30" height="25" as="geometry" />
        </mxCell>
        <mxCell id="_ivXm9f3MDUyb-QJYO9r-143" value="1" style="text;strokeColor=none;align=center;fillColor=none;html=1;verticalAlign=middle;whiteSpace=wrap;rounded=0;" vertex="1" parent="1">
          <mxGeometry x="560" y="210" width="60" height="30" as="geometry" />
        </mxCell>
        <mxCell id="_ivXm9f3MDUyb-QJYO9r-144" value="" style="endArrow=none;html=1;rounded=0;exitX=0.5;exitY=1;exitDx=0;exitDy=0;entryX=0.17;entryY=0.333;entryDx=0;entryDy=0;entryPerimeter=0;" edge="1" parent="1" target="_ivXm9f3MDUyb-QJYO9r-111">
          <mxGeometry width="50" height="50" relative="1" as="geometry">
            <mxPoint x="510" y="260" as="sourcePoint" />
            <mxPoint x="870" y="710" as="targetPoint" />
          </mxGeometry>
        </mxCell>
        <mxCell id="_ivXm9f3MDUyb-QJYO9r-145" value="" style="endArrow=none;html=1;rounded=0;entryX=0.25;entryY=0;entryDx=0;entryDy=0;exitX=0.604;exitY=0.919;exitDx=0;exitDy=0;exitPerimeter=0;" edge="1" parent="1" source="_ivXm9f3MDUyb-QJYO9r-111">
          <mxGeometry width="50" height="50" relative="1" as="geometry">
            <mxPoint x="900" y="780" as="sourcePoint" />
            <mxPoint x="971.5" y="1010" as="targetPoint" />
          </mxGeometry>
        </mxCell>
        <mxCell id="_ivXm9f3MDUyb-QJYO9r-146" value="" style="endArrow=none;html=1;rounded=0;exitX=0.272;exitY=0.852;exitDx=0;exitDy=0;exitPerimeter=0;entryX=0.07;entryY=0.007;entryDx=0;entryDy=0;entryPerimeter=0;" edge="1" parent="1" target="_ivXm9f3MDUyb-QJYO9r-83">
          <mxGeometry width="50" height="50" relative="1" as="geometry">
            <mxPoint x="490" y="1215" as="sourcePoint" />
            <mxPoint x="620" y="1290" as="targetPoint" />
          </mxGeometry>
        </mxCell>
        <mxCell id="_ivXm9f3MDUyb-QJYO9r-147" value="" style="endArrow=none;html=1;rounded=0;exitX=-0.033;exitY=0.635;exitDx=0;exitDy=0;exitPerimeter=0;entryX=0.25;entryY=1;entryDx=0;entryDy=0;" edge="1" parent="1" source="_ivXm9f3MDUyb-QJYO9r-77" target="_ivXm9f3MDUyb-QJYO9r-138">
          <mxGeometry width="50" height="50" relative="1" as="geometry">
            <mxPoint x="480" y="1230" as="sourcePoint" />
            <mxPoint x="490" y="1310" as="targetPoint" />
          </mxGeometry>
        </mxCell>
        <mxCell id="_ivXm9f3MDUyb-QJYO9r-148" value="" style="endArrow=none;html=1;rounded=0;" edge="1" parent="1">
          <mxGeometry width="50" height="50" relative="1" as="geometry">
            <mxPoint x="440" y="1220" as="sourcePoint" />
            <mxPoint x="300" y="1300" as="targetPoint" />
          </mxGeometry>
        </mxCell>
        <mxCell id="_ivXm9f3MDUyb-QJYO9r-149" value="" style="endArrow=none;html=1;rounded=0;exitX=0.5;exitY=1;exitDx=0;exitDy=0;" edge="1" parent="1" source="_ivXm9f3MDUyb-QJYO9r-63">
          <mxGeometry width="50" height="50" relative="1" as="geometry">
            <mxPoint x="480" y="1040" as="sourcePoint" />
            <mxPoint x="471" y="1170" as="targetPoint" />
          </mxGeometry>
        </mxCell>
        <mxCell id="_ivXm9f3MDUyb-QJYO9r-150" value="" style="endArrow=none;html=1;rounded=0;exitX=0.356;exitY=0.965;exitDx=0;exitDy=0;startArrow=none;exitPerimeter=0;" edge="1" parent="1" source="_ivXm9f3MDUyb-QJYO9r-70">
          <mxGeometry width="50" height="50" relative="1" as="geometry">
            <mxPoint x="540" y="850" as="sourcePoint" />
            <mxPoint x="490" y="990" as="targetPoint" />
          </mxGeometry>
        </mxCell>
        <mxCell id="_ivXm9f3MDUyb-QJYO9r-151" value="" style="endArrow=none;html=1;rounded=0;entryX=0.629;entryY=0.077;entryDx=0;entryDy=0;exitX=0.889;exitY=0.044;exitDx=0;exitDy=0;exitPerimeter=0;entryPerimeter=0;" edge="1" parent="1" source="_ivXm9f3MDUyb-QJYO9r-134" target="_ivXm9f3MDUyb-QJYO9r-70">
          <mxGeometry width="50" height="50" relative="1" as="geometry">
            <mxPoint x="549" y="733" as="sourcePoint" />
            <mxPoint x="540" y="800" as="targetPoint" />
          </mxGeometry>
        </mxCell>
        <mxCell id="_ivXm9f3MDUyb-QJYO9r-152" value="" style="rhombus;whiteSpace=wrap;html=1;" vertex="1" parent="1">
          <mxGeometry x="530" y="540" width="60" height="50" as="geometry" />
        </mxCell>
        <mxCell id="_ivXm9f3MDUyb-QJYO9r-153" value="" style="endArrow=none;html=1;rounded=0;entryX=0;entryY=1;entryDx=0;entryDy=0;exitX=0.5;exitY=1;exitDx=0;exitDy=0;" edge="1" parent="1" source="_ivXm9f3MDUyb-QJYO9r-152">
          <mxGeometry width="50" height="50" relative="1" as="geometry">
            <mxPoint x="600" y="510" as="sourcePoint" />
            <mxPoint x="550" y="680" as="targetPoint" />
          </mxGeometry>
        </mxCell>
        <mxCell id="_ivXm9f3MDUyb-QJYO9r-154" value="" style="endArrow=none;html=1;rounded=0;entryX=0.5;entryY=0;entryDx=0;entryDy=0;exitX=0.356;exitY=1;exitDx=0;exitDy=0;exitPerimeter=0;" edge="1" parent="1" source="_ivXm9f3MDUyb-QJYO9r-1" target="_ivXm9f3MDUyb-QJYO9r-152">
          <mxGeometry width="50" height="50" relative="1" as="geometry">
            <mxPoint x="600" y="510" as="sourcePoint" />
            <mxPoint x="600" y="650" as="targetPoint" />
          </mxGeometry>
        </mxCell>
        <mxCell id="_ivXm9f3MDUyb-QJYO9r-155" value="" style="endArrow=none;html=1;rounded=0;" edge="1" parent="1">
          <mxGeometry width="50" height="50" relative="1" as="geometry">
            <mxPoint x="570" y="590" as="sourcePoint" />
            <mxPoint x="560" y="680" as="targetPoint" />
          </mxGeometry>
        </mxCell>
        <mxCell id="_ivXm9f3MDUyb-QJYO9r-156" value="" style="endArrow=none;html=1;rounded=0;exitX=0;exitY=0;exitDx=0;exitDy=0;entryX=0;entryY=0.5;entryDx=0;entryDy=0;" edge="1" parent="1" source="_ivXm9f3MDUyb-QJYO9r-143" target="_ivXm9f3MDUyb-QJYO9r-95">
          <mxGeometry width="50" height="50" relative="1" as="geometry">
            <mxPoint x="570" y="208" as="sourcePoint" />
            <mxPoint x="1250" y="235" as="targetPoint" />
          </mxGeometry>
        </mxCell>
        <mxCell id="_ivXm9f3MDUyb-QJYO9r-157" value="" style="endArrow=none;html=1;rounded=0;exitX=1.019;exitY=0.866;exitDx=0;exitDy=0;exitPerimeter=0;" edge="1" parent="1" source="_ivXm9f3MDUyb-QJYO9r-1">
          <mxGeometry width="50" height="50" relative="1" as="geometry">
            <mxPoint x="570" y="243" as="sourcePoint" />
            <mxPoint x="920" y="303" as="targetPoint" />
          </mxGeometry>
        </mxCell>
        <mxCell id="_ivXm9f3MDUyb-QJYO9r-158" value="" style="endArrow=none;html=1;rounded=0;entryX=0;entryY=0.25;entryDx=0;entryDy=0;" edge="1" parent="1" source="_ivXm9f3MDUyb-QJYO9r-61" target="_ivXm9f3MDUyb-QJYO9r-30">
          <mxGeometry width="50" height="50" relative="1" as="geometry">
            <mxPoint x="980" y="315" as="sourcePoint" />
            <mxPoint x="1520" y="590" as="targetPoint" />
          </mxGeometry>
        </mxCell>
        <mxCell id="_ivXm9f3MDUyb-QJYO9r-159" value="" style="endArrow=none;html=1;rounded=0;exitX=0.294;exitY=0.862;exitDx=0;exitDy=0;exitPerimeter=0;entryX=1.029;entryY=0.123;entryDx=0;entryDy=0;entryPerimeter=0;" edge="1" parent="1" source="_ivXm9f3MDUyb-QJYO9r-91" target="_ivXm9f3MDUyb-QJYO9r-40">
          <mxGeometry width="50" height="50" relative="1" as="geometry">
            <mxPoint x="700" y="650" as="sourcePoint" />
            <mxPoint x="600" y="690" as="targetPoint" />
          </mxGeometry>
        </mxCell>
        <mxCell id="_ivXm9f3MDUyb-QJYO9r-160" value="Disjoint" style="text;strokeColor=none;align=center;fillColor=none;html=1;verticalAlign=middle;whiteSpace=wrap;rounded=0;" vertex="1" parent="1">
          <mxGeometry x="480" y="1170" width="60" height="30" as="geometry" />
        </mxCell>
        <mxCell id="_ivXm9f3MDUyb-QJYO9r-161" value="1" style="text;strokeColor=none;align=center;fillColor=none;html=1;verticalAlign=middle;whiteSpace=wrap;rounded=0;" vertex="1" parent="1">
          <mxGeometry x="530" y="660" width="20" height="10" as="geometry" />
        </mxCell>
        <mxCell id="_ivXm9f3MDUyb-QJYO9r-162" value="belongs to" style="rhombus;whiteSpace=wrap;html=1;" vertex="1" parent="1">
          <mxGeometry x="910" y="604" width="100" height="50" as="geometry" />
        </mxCell>
        <mxCell id="_ivXm9f3MDUyb-QJYO9r-163" value="" style="endArrow=none;html=1;rounded=0;exitX=1;exitY=0.75;exitDx=0;exitDy=0;entryX=0;entryY=0.5;entryDx=0;entryDy=0;" edge="1" parent="1" source="_ivXm9f3MDUyb-QJYO9r-40" target="_ivXm9f3MDUyb-QJYO9r-162">
          <mxGeometry width="50" height="50" relative="1" as="geometry">
            <mxPoint x="630" y="699.13" as="sourcePoint" />
            <mxPoint x="740" y="699.13" as="targetPoint" />
          </mxGeometry>
        </mxCell>
        <mxCell id="_ivXm9f3MDUyb-QJYO9r-164" value="" style="endArrow=none;html=1;rounded=0;exitX=1;exitY=1;exitDx=0;exitDy=0;entryX=0.102;entryY=0.655;entryDx=0;entryDy=0;entryPerimeter=0;" edge="1" parent="1" source="_ivXm9f3MDUyb-QJYO9r-40" target="_ivXm9f3MDUyb-QJYO9r-162">
          <mxGeometry width="50" height="50" relative="1" as="geometry">
            <mxPoint x="600" y="720" as="sourcePoint" />
            <mxPoint x="920" y="639" as="targetPoint" />
          </mxGeometry>
        </mxCell>
        <mxCell id="_ivXm9f3MDUyb-QJYO9r-165" value="" style="endArrow=none;html=1;rounded=0;exitX=0.904;exitY=0.346;exitDx=0;exitDy=0;exitPerimeter=0;entryX=0;entryY=0.5;entryDx=0;entryDy=0;" edge="1" parent="1" source="_ivXm9f3MDUyb-QJYO9r-162" target="_ivXm9f3MDUyb-QJYO9r-30">
          <mxGeometry width="50" height="50" relative="1" as="geometry">
            <mxPoint x="1010" y="621" as="sourcePoint" />
            <mxPoint x="1380" y="610" as="targetPoint" />
          </mxGeometry>
        </mxCell>
        <mxCell id="_ivXm9f3MDUyb-QJYO9r-166" value="1" style="text;strokeColor=none;align=center;fillColor=none;html=1;verticalAlign=middle;whiteSpace=wrap;rounded=0;" vertex="1" parent="1">
          <mxGeometry x="560" y="735" width="20" height="20" as="geometry" />
        </mxCell>
        <mxCell id="_ivXm9f3MDUyb-QJYO9r-167" value="1" style="text;strokeColor=none;align=center;fillColor=none;html=1;verticalAlign=middle;whiteSpace=wrap;rounded=0;" vertex="1" parent="1">
          <mxGeometry x="600.47" y="680" width="20" height="20" as="geometry" />
        </mxCell>
        <mxCell id="_ivXm9f3MDUyb-QJYO9r-168" value="1" style="text;strokeColor=none;align=center;fillColor=none;html=1;verticalAlign=middle;whiteSpace=wrap;rounded=0;" vertex="1" parent="1">
          <mxGeometry x="1690" y="612.5" width="30" height="25" as="geometry" />
        </mxCell>
        <mxCell id="_ivXm9f3MDUyb-QJYO9r-171" value="Achevied by" style="rhombus;whiteSpace=wrap;html=1;" vertex="1" parent="1">
          <mxGeometry x="1590" y="637.5" width="90" height="60" as="geometry" />
        </mxCell>
        <mxCell id="_ivXm9f3MDUyb-QJYO9r-172" value="" style="endArrow=none;html=1;rounded=0;entryX=0.75;entryY=0;entryDx=0;entryDy=0;exitX=0.5;exitY=1;exitDx=0;exitDy=0;" edge="1" parent="1" source="_ivXm9f3MDUyb-QJYO9r-171" target="_ivXm9f3MDUyb-QJYO9r-117">
          <mxGeometry width="50" height="50" relative="1" as="geometry">
            <mxPoint x="1430" y="580" as="sourcePoint" />
            <mxPoint x="1430" y="720" as="targetPoint" />
          </mxGeometry>
        </mxCell>
        <mxCell id="_ivXm9f3MDUyb-QJYO9r-173" value="" style="endArrow=none;html=1;rounded=0;entryX=0.5;entryY=0;entryDx=0;entryDy=0;exitX=0.75;exitY=1;exitDx=0;exitDy=0;" edge="1" parent="1" source="_ivXm9f3MDUyb-QJYO9r-18" target="_ivXm9f3MDUyb-QJYO9r-171">
          <mxGeometry width="50" height="50" relative="1" as="geometry">
            <mxPoint x="1590" y="270" as="sourcePoint" />
            <mxPoint x="1430" y="720" as="targetPoint" />
          </mxGeometry>
        </mxCell>
        <mxCell id="_ivXm9f3MDUyb-QJYO9r-174" value="" style="endArrow=none;html=1;rounded=0;entryX=0.871;entryY=-0.035;entryDx=0;entryDy=0;exitX=0.605;exitY=0.906;exitDx=0;exitDy=0;exitPerimeter=0;entryPerimeter=0;" edge="1" parent="1" source="_ivXm9f3MDUyb-QJYO9r-171" target="_ivXm9f3MDUyb-QJYO9r-117">
          <mxGeometry width="50" height="50" relative="1" as="geometry">
            <mxPoint x="1645" y="708" as="sourcePoint" />
            <mxPoint x="1650" y="780" as="targetPoint" />
          </mxGeometry>
        </mxCell>
        <mxCell id="_ivXm9f3MDUyb-QJYO9r-175" value="N" style="text;strokeColor=none;align=center;fillColor=none;html=1;verticalAlign=middle;whiteSpace=wrap;rounded=0;" vertex="1" parent="1">
          <mxGeometry x="1660" y="745" width="30" height="20" as="geometry" />
        </mxCell>
        <mxCell id="_ivXm9f3MDUyb-QJYO9r-176" value="1" style="text;strokeColor=none;align=center;fillColor=none;html=1;verticalAlign=middle;whiteSpace=wrap;rounded=0;" vertex="1" parent="1">
          <mxGeometry x="1600" y="265" width="30" height="20" as="geometry" />
        </mxCell>
        <mxCell id="_ivXm9f3MDUyb-QJYO9r-177" value="Rewarded for" style="rhombus;whiteSpace=wrap;html=1;" vertex="1" parent="1">
          <mxGeometry x="1090" y="802.5" width="97" height="75" as="geometry" />
        </mxCell>
        <mxCell id="_ivXm9f3MDUyb-QJYO9r-178" value="" style="endArrow=none;html=1;rounded=0;entryX=0.75;entryY=0;entryDx=0;entryDy=0;exitX=0.5;exitY=1;exitDx=0;exitDy=0;" edge="1" parent="1" source="_ivXm9f3MDUyb-QJYO9r-177" target="_ivXm9f3MDUyb-QJYO9r-96">
          <mxGeometry width="50" height="50" relative="1" as="geometry">
            <mxPoint x="1050" y="640" as="sourcePoint" />
            <mxPoint x="1050" y="780" as="targetPoint" />
          </mxGeometry>
        </mxCell>
        <mxCell id="_ivXm9f3MDUyb-QJYO9r-179" value="" style="endArrow=none;html=1;rounded=0;entryX=0.629;entryY=0.015;entryDx=0;entryDy=0;exitX=0.383;exitY=0.892;exitDx=0;exitDy=0;entryPerimeter=0;exitPerimeter=0;" edge="1" parent="1" source="_ivXm9f3MDUyb-QJYO9r-177" target="_ivXm9f3MDUyb-QJYO9r-96">
          <mxGeometry width="50" height="50" relative="1" as="geometry">
            <mxPoint x="1149" y="888" as="sourcePoint" />
            <mxPoint x="1050" y="1025" as="targetPoint" />
          </mxGeometry>
        </mxCell>
        <mxCell id="_ivXm9f3MDUyb-QJYO9r-180" value="" style="endArrow=none;html=1;rounded=0;entryX=0.5;entryY=0;entryDx=0;entryDy=0;exitX=0.5;exitY=1;exitDx=0;exitDy=0;" edge="1" parent="1" source="_ivXm9f3MDUyb-QJYO9r-18" target="_ivXm9f3MDUyb-QJYO9r-177">
          <mxGeometry width="50" height="50" relative="1" as="geometry">
            <mxPoint x="1050" y="640" as="sourcePoint" />
            <mxPoint x="1050" y="780" as="targetPoint" />
          </mxGeometry>
        </mxCell>
        <mxCell id="_ivXm9f3MDUyb-QJYO9r-181" value="N" style="text;strokeColor=none;align=center;fillColor=none;html=1;verticalAlign=middle;whiteSpace=wrap;rounded=0;" vertex="1" parent="1">
          <mxGeometry x="1050" y="995" width="40" height="20" as="geometry" />
        </mxCell>
        <mxCell id="_ivXm9f3MDUyb-QJYO9r-182" value="1" style="text;strokeColor=none;align=center;fillColor=none;html=1;verticalAlign=middle;whiteSpace=wrap;rounded=0;" vertex="1" parent="1">
          <mxGeometry x="1550" y="265" width="40" height="20" as="geometry" />
        </mxCell>
        <mxCell id="_ivXm9f3MDUyb-QJYO9r-183" value="" style="endArrow=none;html=1;rounded=0;exitX=1;exitY=0.25;exitDx=0;exitDy=0;entryX=0;entryY=0.5;entryDx=0;entryDy=0;" edge="1" parent="1" source="_ivXm9f3MDUyb-QJYO9r-18" target="_ivXm9f3MDUyb-QJYO9r-184">
          <mxGeometry width="50" height="50" relative="1" as="geometry">
            <mxPoint x="1654" y="275" as="sourcePoint" />
            <mxPoint x="1814" y="355" as="targetPoint" />
          </mxGeometry>
        </mxCell>
        <mxCell id="_ivXm9f3MDUyb-QJYO9r-184" value="Password" style="ellipse;whiteSpace=wrap;html=1;" vertex="1" parent="1">
          <mxGeometry x="1694" y="145" width="80" height="40" as="geometry" />
        </mxCell>
        <mxCell id="_ivXm9f3MDUyb-QJYO9r-185" value="" style="whiteSpace=wrap;html=1;aspect=fixed;" vertex="1" parent="1">
          <mxGeometry x="990" y="448.75" width="102.5" height="102.5" as="geometry" />
        </mxCell>
        <mxCell id="_ivXm9f3MDUyb-QJYO9r-186" value="" style="rhombus;whiteSpace=wrap;html=1;" vertex="1" parent="1">
          <mxGeometry x="990" y="448.75" width="106.25" height="101.25" as="geometry" />
        </mxCell>
        <mxCell id="_ivXm9f3MDUyb-QJYO9r-187" value="TaskAchievement" style="text;strokeColor=none;align=center;fillColor=none;html=1;verticalAlign=middle;whiteSpace=wrap;rounded=0;" vertex="1" parent="1">
          <mxGeometry x="1013.1300000000001" y="484.38" width="60" height="30" as="geometry" />
        </mxCell>
        <mxCell id="_ivXm9f3MDUyb-QJYO9r-188" value="" style="endArrow=none;html=1;rounded=0;exitX=0.904;exitY=0.346;exitDx=0;exitDy=0;exitPerimeter=0;entryX=0;entryY=0.75;entryDx=0;entryDy=0;" edge="1" parent="1" target="_ivXm9f3MDUyb-QJYO9r-30">
          <mxGeometry width="50" height="50" relative="1" as="geometry">
            <mxPoint x="1010" y="631" as="sourcePoint" />
            <mxPoint x="1730" y="605" as="targetPoint" />
          </mxGeometry>
        </mxCell>
        <mxCell id="_ivXm9f3MDUyb-QJYO9r-189" value="" style="endArrow=none;html=1;rounded=0;exitX=0.99;exitY=0.11;exitDx=0;exitDy=0;exitPerimeter=0;" edge="1" parent="1" source="_ivXm9f3MDUyb-QJYO9r-185" target="_ivXm9f3MDUyb-QJYO9r-190">
          <mxGeometry width="50" height="50" relative="1" as="geometry">
            <mxPoint x="1091.5" y="433.75" as="sourcePoint" />
            <mxPoint x="1606.65" y="550" as="targetPoint" />
          </mxGeometry>
        </mxCell>
        <mxCell id="_ivXm9f3MDUyb-QJYO9r-190" value="&lt;u&gt;Task_Ach_id&lt;/u&gt;" style="ellipse;whiteSpace=wrap;html=1;" vertex="1" parent="1">
          <mxGeometry x="1160" y="420" width="80" height="40" as="geometry" />
        </mxCell>
        <mxCell id="_ivXm9f3MDUyb-QJYO9r-191" value="" style="endArrow=none;html=1;rounded=0;exitX=1;exitY=0.25;exitDx=0;exitDy=0;" edge="1" parent="1" source="_ivXm9f3MDUyb-QJYO9r-185" target="_ivXm9f3MDUyb-QJYO9r-192">
          <mxGeometry width="50" height="50" relative="1" as="geometry">
            <mxPoint x="1140" y="510" as="sourcePoint" />
            <mxPoint x="1655.65" y="600" as="targetPoint" />
          </mxGeometry>
        </mxCell>
        <mxCell id="_ivXm9f3MDUyb-QJYO9r-192" value="Date" style="ellipse;whiteSpace=wrap;html=1;" vertex="1" parent="1">
          <mxGeometry x="1209" y="470" width="80" height="40" as="geometry" />
        </mxCell>
        <mxCell id="_ivXm9f3MDUyb-QJYO9r-193" value="" style="rhombus;whiteSpace=wrap;html=1;" vertex="1" parent="1">
          <mxGeometry x="735" y="320" width="75" height="70" as="geometry" />
        </mxCell>
        <mxCell id="_ivXm9f3MDUyb-QJYO9r-194" value="" style="rhombus;whiteSpace=wrap;html=1;" vertex="1" parent="1">
          <mxGeometry x="1350" y="635" width="75" height="70" as="geometry" />
        </mxCell>
        <mxCell id="_ivXm9f3MDUyb-QJYO9r-195" value="Associated&lt;br&gt;to" style="text;strokeColor=none;align=center;fillColor=none;html=1;verticalAlign=middle;whiteSpace=wrap;rounded=0;" vertex="1" parent="1">
          <mxGeometry x="1357.5" y="655" width="60" height="30" as="geometry" />
        </mxCell>
        <mxCell id="_ivXm9f3MDUyb-QJYO9r-196" value="" style="endArrow=none;html=1;rounded=0;entryX=0.335;entryY=-0.064;entryDx=0;entryDy=0;entryPerimeter=0;exitX=1;exitY=0.75;exitDx=0;exitDy=0;" edge="1" parent="1" source="_ivXm9f3MDUyb-QJYO9r-195" target="_ivXm9f3MDUyb-QJYO9r-117">
          <mxGeometry width="50" height="50" relative="1" as="geometry">
            <mxPoint x="960" y="560" as="sourcePoint" />
            <mxPoint x="1070" y="560" as="targetPoint" />
          </mxGeometry>
        </mxCell>
        <mxCell id="_ivXm9f3MDUyb-QJYO9r-197" value="" style="endArrow=none;html=1;rounded=0;entryX=1;entryY=0.5;entryDx=0;entryDy=0;exitX=0.75;exitY=1;exitDx=0;exitDy=0;" edge="1" parent="1" source="_ivXm9f3MDUyb-QJYO9r-195" target="_ivXm9f3MDUyb-QJYO9r-140">
          <mxGeometry width="50" height="50" relative="1" as="geometry">
            <mxPoint x="1428" y="688" as="sourcePoint" />
            <mxPoint x="1600" y="777" as="targetPoint" />
          </mxGeometry>
        </mxCell>
        <mxCell id="_ivXm9f3MDUyb-QJYO9r-198" value="" style="endArrow=none;html=1;rounded=0;entryX=0;entryY=0;entryDx=0;entryDy=0;" edge="1" parent="1" target="_ivXm9f3MDUyb-QJYO9r-195">
          <mxGeometry width="50" height="50" relative="1" as="geometry">
            <mxPoint x="1090" y="533" as="sourcePoint" />
            <mxPoint x="1257" y="612.5" as="targetPoint" />
          </mxGeometry>
        </mxCell>
        <mxCell id="_ivXm9f3MDUyb-QJYO9r-199" value="" style="endArrow=none;html=1;rounded=0;entryX=0;entryY=0;entryDx=0;entryDy=0;" edge="1" parent="1">
          <mxGeometry width="50" height="50" relative="1" as="geometry">
            <mxPoint x="1090" y="543" as="sourcePoint" />
            <mxPoint x="1368" y="665" as="targetPoint" />
          </mxGeometry>
        </mxCell>
        <mxCell id="_ivXm9f3MDUyb-QJYO9r-200" value="1" style="text;strokeColor=none;align=center;fillColor=none;html=1;verticalAlign=middle;whiteSpace=wrap;rounded=0;" vertex="1" parent="1">
          <mxGeometry x="1092.5" y="514.38" width="20" height="20" as="geometry" />
        </mxCell>
        <mxCell id="_ivXm9f3MDUyb-QJYO9r-201" value="Associated&lt;br&gt;to" style="text;strokeColor=none;align=center;fillColor=none;html=1;verticalAlign=middle;whiteSpace=wrap;rounded=0;" vertex="1" parent="1">
          <mxGeometry x="742.5" y="340" width="60" height="30" as="geometry" />
        </mxCell>
        <mxCell id="_ivXm9f3MDUyb-QJYO9r-202" value="" style="endArrow=none;html=1;rounded=0;entryX=0;entryY=0.25;entryDx=0;entryDy=0;" edge="1" parent="1" target="_ivXm9f3MDUyb-QJYO9r-185">
          <mxGeometry width="50" height="50" relative="1" as="geometry">
            <mxPoint x="790" y="370" as="sourcePoint" />
            <mxPoint x="1092.5" y="492" as="targetPoint" />
          </mxGeometry>
        </mxCell>
        <mxCell id="_ivXm9f3MDUyb-QJYO9r-203" value="" style="endArrow=none;html=1;rounded=0;entryX=0;entryY=0.5;entryDx=0;entryDy=0;exitX=0.647;exitY=0.868;exitDx=0;exitDy=0;exitPerimeter=0;" edge="1" parent="1" source="_ivXm9f3MDUyb-QJYO9r-193" target="_ivXm9f3MDUyb-QJYO9r-185">
          <mxGeometry width="50" height="50" relative="1" as="geometry">
            <mxPoint x="780" y="388" as="sourcePoint" />
            <mxPoint x="980" y="492" as="targetPoint" />
          </mxGeometry>
        </mxCell>
        <mxCell id="_ivXm9f3MDUyb-QJYO9r-204" value="" style="endArrow=none;html=1;rounded=0;entryX=0.25;entryY=0;entryDx=0;entryDy=0;exitX=1;exitY=0.25;exitDx=0;exitDy=0;" edge="1" parent="1" source="_ivXm9f3MDUyb-QJYO9r-131" target="_ivXm9f3MDUyb-QJYO9r-201">
          <mxGeometry width="50" height="50" relative="1" as="geometry">
            <mxPoint x="575.47" y="303" as="sourcePoint" />
            <mxPoint x="775.47" y="407" as="targetPoint" />
          </mxGeometry>
        </mxCell>
        <mxCell id="_ivXm9f3MDUyb-QJYO9r-205" value="N" style="text;strokeColor=none;align=center;fillColor=none;html=1;verticalAlign=middle;whiteSpace=wrap;rounded=0;" vertex="1" parent="1">
          <mxGeometry x="960" y="445" width="30" height="20" as="geometry" />
        </mxCell>
        <mxCell id="_ivXm9f3MDUyb-QJYO9r-207" value="" style="endArrow=none;html=1;rounded=0;exitX=0;exitY=0.75;exitDx=0;exitDy=0;" edge="1" parent="1" target="_ivXm9f3MDUyb-QJYO9r-208" source="_ivXm9f3MDUyb-QJYO9r-1">
          <mxGeometry width="50" height="50" relative="1" as="geometry">
            <mxPoint x="440" y="252.5" as="sourcePoint" />
            <mxPoint x="610.65" y="435" as="targetPoint" />
          </mxGeometry>
        </mxCell>
        <mxCell id="_ivXm9f3MDUyb-QJYO9r-208" value="conclusion" style="ellipse;whiteSpace=wrap;html=1;" vertex="1" parent="1">
          <mxGeometry x="84" y="145" width="80" height="40" as="geometry" />
        </mxCell>
        <mxCell id="_ivXm9f3MDUyb-QJYO9r-209" value="" style="endArrow=none;html=1;rounded=0;" edge="1" parent="1" target="_ivXm9f3MDUyb-QJYO9r-210" source="_ivXm9f3MDUyb-QJYO9r-40">
          <mxGeometry width="50" height="50" relative="1" as="geometry">
            <mxPoint x="494.91" y="786.25" as="sourcePoint" />
            <mxPoint x="711.56" y="876.25" as="targetPoint" />
          </mxGeometry>
        </mxCell>
        <mxCell id="_ivXm9f3MDUyb-QJYO9r-210" value="isFinished" style="ellipse;whiteSpace=wrap;html=1;" vertex="1" parent="1">
          <mxGeometry x="174.91" y="803.75" width="130" height="40" as="geometry" />
        </mxCell>
      </root>
    </mxGraphModel>
  </diagram>
</mxfile>
